<?xml version="1.0" encoding="UTF-8"?>
<svg version="1.1" xmlns="http://www.w3.org/2000/svg" width="500" height="500">
<path d="M0 0 C165 0 330 0 500 0 C500 165 500 330 500 500 C335 500 170 500 0 500 C0 335 0 170 0 0 Z " fill="#FAEDE5" transform="translate(0,0)"/>
<path d="M0 0 C20.79 0 41.58 0 63 0 C63 0.99 63 1.98 63 3 C62.18015625 3.04898438 61.3603125 3.09796875 60.515625 3.1484375 C58.89914063 3.26058594 58.89914063 3.26058594 57.25 3.375 C56.18265625 3.44460937 55.1153125 3.51421875 54.015625 3.5859375 C51.19793568 3.9728223 49.4169634 4.55686166 47 6 C46.59672104 11.72832062 47.83208074 15.66188635 50.40234375 20.671875 C50.75583893 21.38837723 51.10933411 22.10487946 51.47354126 22.84309387 C52.61578959 25.15180169 53.77657934 27.45063429 54.9375 29.75 C55.72214159 31.32989388 56.50526093 32.91054467 57.28686523 34.49194336 C58.82077252 37.59297448 60.36036211 40.69105807 61.90527344 43.78662109 C64.51254232 49.01920174 67.05561384 54.2811417 69.5625 59.5625 C70.10668579 60.69220215 70.10668579 60.69220215 70.66186523 61.84472656 C73 66.76301459 73 66.76301459 73 69 C74.258125 68.67 75.51625 68.34 76.8125 68 C82.12637824 66.94789785 87.3499365 66.70791048 92.75 66.625 C93.56573486 66.59921875 94.38146973 66.5734375 95.22192383 66.546875 C100.63151933 66.52917308 103.73279023 67.37418066 108 71 C110.33909307 74.5086396 110.41291057 75.87089433 110 80 C108.72311154 82.80915461 107.68900183 84.50106764 105.1875 86.3125 C102.23367076 87.24084633 100.084218 87.37765935 97 87 C94.30009338 85.20006226 92.4581135 83.916227 91 81 C90.83203125 79.125 90.83203125 79.125 90.8125 77 C90.79832031 76.29875 90.78414063 75.5975 90.76953125 74.875 C91 73 91 73 93 71 C91.50011039 70.9723381 90.00006131 70.9533139 88.5 70.9375 C87.6646875 70.92589844 86.829375 70.91429687 85.96875 70.90234375 C82.26191676 71.02427905 78.67509943 71.50134869 75 72 C75.72783203 73.45566406 76.4556819 74.91131921 77.18359375 76.36694336 C77.87005043 77.74002366 78.55623573 79.11323966 79.2421875 80.48657227 C81.53663246 85.0788882 83.83786684 89.66771465 86.14453125 94.25390625 C92.26080285 106.42903652 98.29553495 118.62596404 104 131 C106.63521536 124.5354149 109.11353101 118.03863795 111.41796875 111.44921875 C111.72068192 110.5873848 112.02339508 109.72555084 112.33528137 108.83760071 C112.96740383 107.03560162 113.59839092 105.23320388 114.22827148 103.43041992 C115.1917083 100.67546635 116.16110425 97.9226568 117.13085938 95.16992188 C117.74775655 93.40898049 118.36430545 91.64791705 118.98046875 89.88671875 C119.26899216 89.06894455 119.55751556 88.25117035 119.8547821 87.40861511 C120.12208633 86.64043961 120.38939056 85.8722641 120.66479492 85.08081055 C121.01642952 84.07681465 121.01642952 84.07681465 121.37516785 83.05253601 C122.79099938 78.40161466 123.3614234 75.84764847 121.12915039 71.38769531 C120.6944191 70.50196838 120.25968781 69.61624146 119.81178284 68.70367432 C119.32862106 67.75474304 118.84545929 66.80581177 118.34765625 65.828125 C117.60823036 64.33439362 117.60823036 64.33439362 116.85386658 62.81048584 C115.2697055 59.61701159 113.66674102 56.43342706 112.0625 53.25 C110.499325 50.11687567 108.94006281 46.98182679 107.38119507 43.84655762 C106.36193488 41.79882858 105.34015917 39.75234964 104.31582642 37.70715332 C100.93680562 30.94842377 97.66282932 24.14997493 94.58204651 17.24957275 C92.21123001 12.05844556 89.78210512 8.18807008 85 5 C82.26127045 4.54227937 82.26127045 4.54227937 79.3125 4.375 C77.82169922 4.26285156 77.82169922 4.26285156 76.30078125 4.1484375 C75.16189453 4.07496094 75.16189453 4.07496094 74 4 C74 2.68 74 1.36 74 0 C105.35 0 136.7 0 169 0 C169 0.99 169 1.98 169 3 C167.89591797 3.16435547 167.89591797 3.16435547 166.76953125 3.33203125 C159.31509653 4.3191135 159.31509653 4.3191135 153 8 C149.73468389 13.92965379 147.54351327 19.93653353 145.5 26.375 C144.93020075 28.15464697 144.35728793 29.93330008 143.78125 31.7109375 C143.50023437 32.58459961 143.21921875 33.45826172 142.9296875 34.35839844 C141.69262314 37.87337648 140.15710547 41.23642088 138.55664062 44.60009766 C137.40959016 49.54549505 140.44812578 54.13637337 142.65234375 58.46484375 C143.17570313 59.49988037 143.6990625 60.53491699 144.23828125 61.60131836 C144.79902344 62.7022583 145.35976562 63.80319824 145.9375 64.9375 C147.12527242 67.29087266 148.31144277 69.64505451 149.49609375 72 C149.79425995 72.59260117 150.09242615 73.18520233 150.39962769 73.79576111 C154.56885194 82.10036504 158.53161486 90.50296203 162.51855469 98.89599609 C164.18131132 102.37989322 165.85847071 105.85671641 167.5390625 109.33203125 C167.98732391 110.2596653 167.98732391 110.2596653 168.44464111 111.20603943 C169.91106158 114.24042127 171.37910035 117.27399205 172.84960938 120.30639648 C173.37619141 121.39637939 173.90277344 122.4863623 174.4453125 123.609375 C174.91469238 124.57842773 175.38407227 125.54748047 175.86767578 126.54589844 C177 129 177 129 178 132 C178.18632996 131.46162506 178.37265991 130.92325012 178.56463623 130.36856079 C180.18789677 125.67891595 181.81227839 120.98966223 183.43774414 116.30078125 C184.98793233 111.82823722 186.53339816 107.35409699 188.07592773 102.87890625 C191.55393124 92.80596571 195.05169897 82.74910336 198.80078125 72.7734375 C199.36343575 71.25717674 199.92562701 69.74074398 200.48730469 68.22412109 C201.2559222 66.14875966 202.03158028 64.07869087 202.84094238 62.01885986 C205.74854021 54.61755194 207.4633282 47.80058011 207.62109375 39.875 C207.64446304 39.1639209 207.66783234 38.4528418 207.69190979 37.72021484 C207.63459612 33.82765928 207.09623853 32.12032307 204.64208984 29.05200195 C201.60746546 26.69513465 199.98423397 26.32473135 196.1875 26.1875 C195.21167969 26.13980469 194.23585937 26.09210938 193.23046875 26.04296875 C192.49441406 26.02878906 191.75835937 26.01460937 191 26 C191 24.68 191 23.36 191 22 C199.58 21.67 208.16 21.34 217 21 C218.86290584 15.70750247 218.86290584 15.70750247 219.125 10.625 C219.08375 9.42875 219.0425 8.2325 219 7 C214.63799813 4.55302334 210.97306516 3.49730652 206 3 C206 2.01 206 1.02 206 0 C218.21 0 230.42 0 243 0 C243 0.99 243 1.98 243 3 C242.27554687 3.09796875 241.55109375 3.1959375 240.8046875 3.296875 C232.7016747 4.52376468 232.7016747 4.52376468 226 9 C223.6314405 13.14879939 222.12420268 17.3745703 221 22 C221.66826309 21.99555878 222.33652618 21.99111755 223.02503967 21.98654175 C230.05060666 21.94191085 237.07613265 21.9119705 244.10180664 21.89013672 C246.71543008 21.88014814 249.32904255 21.86655266 251.94262695 21.84912109 C279.87849849 21.66761534 279.87849849 21.66761534 292 24 C293.1638623 24.22260498 294.32772461 24.44520996 295.52685547 24.67456055 C308.82042581 27.35771359 321.10011515 31.81644429 328.875 43.375 C333.35165705 50.43354297 334.39005353 57.57416075 334.375 65.75 C334.37556396 66.53060791 334.37612793 67.31121582 334.37670898 68.11547852 C334.2483507 74.93249602 332.67028699 80.72643417 330 87 C329.67 87.99 329.34 88.98 329 90 C330.03447266 89.49339844 330.03447266 89.49339844 331.08984375 88.9765625 C344.89818911 82.42280736 360.14037822 80.11464893 374.9375 85.125 C391.74353339 91.53924302 403.63665746 101.02952673 412 117 C418.33653732 131.35348232 419.56228272 148.12510757 414 163 C408.08920203 177.58754627 398.02336032 189.78176577 383.625 196.59765625 C375.19130023 199.94575697 367.1883912 202.37694439 358.0625 202.25 C357.33522705 202.24250732 356.6079541 202.23501465 355.85864258 202.22729492 C338.55712404 201.89460915 322.83713551 199.85682437 310 187 C303.24772702 179.13280824 297.47604502 170.59633005 291.6484375 162.0390625 C290.97554688 161.059375 290.30265625 160.0796875 289.609375 159.0703125 C289.01092773 158.19133301 288.41248047 157.31235352 287.79589844 156.40673828 C286.02938719 154.03938267 284.1403087 152.03017174 282 150 C281.61714844 151.05960937 281.61714844 151.05960937 281.2265625 152.140625 C279.88284977 155.27310181 278.24814738 157.90050168 276.375 160.75 C275.57764233 161.97364395 274.78081391 163.19763285 273.984375 164.421875 C273.52611328 165.12376953 273.06785156 165.82566406 272.59570312 166.54882812 C269.61577284 171.12632201 266.65951255 175.71900635 263.70831299 180.31506348 C262.64062814 181.9756927 261.56912076 183.63386225 260.49755859 185.29199219 C259.49716553 186.84901855 259.49716553 186.84901855 258.4765625 188.4375 C257.87924316 189.36433594 257.28192383 190.29117188 256.66650391 191.24609375 C254.92895337 194.02669511 254.92895337 194.02669511 253.42871094 197.19921875 C251.75019649 200.48970366 249.62690014 202.41161746 247 205 C245.0244037 207.59788767 243.20814303 210.30040691 241.375 213 C236.75928833 219.67040163 231.88328543 225.93285583 226.5546875 232.04296875 C224.25883647 234.70039876 222.09662291 237.41928599 219.9375 240.1875 C210.01570582 252.36180962 198.40769039 263.40027349 186 273 C184.81632483 273.96938623 183.63553355 274.94230031 182.45703125 275.91796875 C158.94500207 295.29381868 132.73738817 307.47408848 101.9375 307.3125 C101.20322784 307.31034485 100.46895569 307.3081897 99.71243286 307.30596924 C64.40348174 307.13934716 35.52392793 293.48724401 10.6015625 268.60546875 C-2.26680655 254.99208886 -10.57976852 238.83431002 -16 221 C-16.31976807 220.08911621 -16.63953613 219.17823242 -16.96899414 218.23974609 C-20.36331069 207.57373126 -20.40944963 196.34048467 -20.375 185.25 C-20.37345917 184.49788239 -20.37191833 183.74576477 -20.37033081 182.97085571 C-20.31620256 171.87544976 -19.99719743 161.48335609 -16 151 C-15.68321289 150.16194824 -15.36642578 149.32389648 -15.04003906 148.46044922 C-11.01676399 138.07345392 -6.63216478 128.01413945 0 119 C0.52851562 118.26394531 1.05703125 117.52789062 1.6015625 116.76953125 C11.67996824 103.27593115 23.52726406 91.70871818 37.9375 82.9375 C38.56430664 82.55505127 39.19111328 82.17260254 39.83691406 81.77856445 C43.23670136 79.78651587 46.13940452 78.66201621 50 78 C49.74658844 77.48286942 49.49317688 76.96573883 49.23208618 76.43293762 C46.53663164 70.93180339 43.84283641 65.42985872 41.14990234 59.92749023 C40.15160919 57.88822954 39.15292636 55.84915955 38.15380859 53.81030273 C36.69780443 50.83891055 35.24319681 47.8668389 33.7890625 44.89453125 C33.30697327 43.91042267 32.82488403 42.92631409 32.32818604 41.91238403 C29.90818381 36.95932712 27.51819843 31.99494203 25.18261719 27.00146484 C24.73429535 26.04576096 24.28597351 25.09005707 23.82406616 24.10539246 C22.98197939 22.30473277 22.14552183 20.50142535 21.31582642 18.69502258 C18.66098255 13.0209078 16.42298313 8.28006656 10.6875 5.25 C7.08644597 4.02930372 3.77519878 3.38522437 0 3 C0 2.01 0 1.02 0 0 Z " fill="#020202" transform="translate(51,111)"/>
<path d="M0 0 C0.33 0 0.66 0 1 0 C1.0700867 16.86351932 1.12298647 33.72699316 1.15543652 50.59062481 C1.17090423 58.42073625 1.19199188 66.25075719 1.22631836 74.08081055 C1.2562237 80.9056321 1.2755757 87.7303881 1.28226548 94.55527335 C1.28617584 98.16889136 1.29536357 101.78232185 1.31719017 105.39587975 C1.3413609 109.43026416 1.34196927 113.46432272 1.34057617 117.4987793 C1.351362 118.69639893 1.36214783 119.89401855 1.3732605 121.12792969 C1.36913651 122.22864304 1.36501251 123.32935638 1.36076355 124.46342468 C1.36352893 125.41748042 1.36629431 126.37153616 1.36914349 127.35450268 C0.92358024 130.54766856 -0.11220579 132.40494649 -2 135 C-6.41426281 137.90940049 -9.77028126 138.31378312 -15 138 C-15 138.99 -15 139.98 -15 141 C2.82 141 20.64 141 39 141 C33.37014887 151.13373203 33.37014887 151.13373203 30.87109375 154.32421875 C30.31744141 155.03537842 29.76378906 155.74653809 29.19335938 156.47924805 C28.32420898 157.57233276 28.32420898 157.57233276 27.4375 158.6875 C26.82326172 159.46714111 26.20902344 160.24678223 25.57617188 161.05004883 C2.0834874 190.68562177 2.0834874 190.68562177 -11.859375 202.2265625 C-13.56817851 203.64225008 -15.23678072 205.10641735 -16.890625 206.5859375 C-34.71312934 222.47376209 -53.88920416 235.39345836 -77 242 C-78.07636719 242.32097656 -79.15273437 242.64195312 -80.26171875 242.97265625 C-110.01941586 250.40344008 -142.16373716 244.44001469 -168.26123047 229.07519531 C-173.11907968 226.07126834 -177.59017479 222.61879724 -182 219 C-183.27617187 217.95392578 -183.27617187 217.95392578 -184.578125 216.88671875 C-206.6263559 197.9238535 -219.88551931 171.64489553 -224 143 C-224.88508956 126.33345838 -225.42538102 108.95844056 -220 93 C-219.77505859 92.33774414 -219.55011719 91.67548828 -219.31835938 90.99316406 C-208.10416615 59.09604421 -186.4003784 36.61376028 -157 21 C-156.34 21 -155.68 21 -155 21 C-140.0289306 51.83136771 -140.0289306 51.83136771 -134.19067383 63.99829102 C-133.23439918 65.99073243 -132.27592136 67.98211799 -131.31518555 69.97241211 C-128.74316484 75.31119035 -126.2283584 80.67055417 -123.76953125 86.0625 C-122.96467285 87.80273438 -122.96467285 87.80273438 -122.14355469 89.578125 C-121.11200212 91.81071314 -120.09499545 94.05009672 -119.09472656 96.296875 C-118.63163086 97.29203125 -118.16853516 98.2871875 -117.69140625 99.3125 C-117.09114624 100.63701172 -117.09114624 100.63701172 -116.47875977 101.98828125 C-115.12411076 104.25525722 -115.12411076 104.25525722 -112.33178711 104.79296875 C-111.56229736 104.86128906 -110.79280762 104.92960937 -110 105 C-109.83448891 104.17671959 -109.83448891 104.17671959 -109.66563416 103.33680725 C-108.50727471 97.82801227 -106.96550446 92.60332424 -105.06640625 87.30859375 C-104.78780258 86.519048 -104.50919891 85.72950226 -104.22215271 84.91603088 C-103.34047769 82.42142852 -102.451544 79.9294843 -101.5625 77.4375 C-100.97024037 75.76383556 -100.37843983 74.09000858 -99.78710938 72.41601562 C-95.52040814 60.36269083 -95.52040814 60.36269083 -93.37475586 54.66040039 C-92.17230804 51.45878432 -91.06005008 48.25082026 -90 45 C-88.4424111 40.28577655 -86.78066295 35.63355306 -85 31 C-84.4363668 29.50042544 -83.87384997 28.00043076 -83.3125 26.5 C-82.879375 25.345 -82.44625 24.19 -82 23 C-77.52469316 26.67651065 -75.66997819 31.41874881 -73.3125 36.5625 C-72.34394969 38.63221386 -71.37378783 40.70117404 -70.40234375 42.76953125 C-69.59966064 44.48390381 -69.59966064 44.48390381 -68.78076172 46.23291016 C-66.82649251 50.38399141 -64.82425315 54.51134142 -62.81640625 58.63671875 C-62.45380203 59.3817717 -62.09119781 60.12682465 -61.71760559 60.89445496 C-60.23266948 63.94304545 -58.7461101 66.99083427 -57.25686646 70.037323 C-50.21444942 84.44410608 -50.21444942 84.44410608 -47.0859375 91.4296875 C-46.67939941 92.32977539 -46.27286133 93.22986328 -45.85400391 94.15722656 C-45.1445438 95.74307856 -44.45015235 97.33580559 -43.77490234 98.93652344 C-42.81238997 101.19882658 -42.81238997 101.19882658 -41 104 C-38.39230626 105.07782384 -38.39230626 105.07782384 -36 105 C-35.64989868 103.19704468 -35.64989868 103.19704468 -35.29272461 101.35766602 C-33.83487242 94.81974066 -31.55039582 88.58310269 -29.31640625 82.27734375 C-28.85520115 80.96430641 -28.39442936 79.65111679 -27.93406677 78.33778381 C-26.72822465 74.90175832 -25.51610468 71.4679799 -24.30273438 68.03460693 C-23.31774034 65.24408829 -22.33722559 62.45200618 -21.35694981 59.65982723 C-13.43106021 37.08553127 -13.43106021 37.08553127 -10 28 C-9.15430079 25.504156 -8.3206966 23.00417682 -7.5 20.5 C-5.21376803 13.57363367 -2.74581183 6.75892143 0 0 Z " fill="#F9ECE4" transform="translate(258,170)"/>
<path d="M0 0 C20.79 0 41.58 0 63 0 C63 0.99 63 1.98 63 3 C62.18015625 3.04898438 61.3603125 3.09796875 60.515625 3.1484375 C59.43796875 3.22320312 58.3603125 3.29796875 57.25 3.375 C55.64898437 3.47941406 55.64898437 3.47941406 54.015625 3.5859375 C51.19793568 3.9728223 49.4169634 4.55686166 47 6 C46.59672104 11.72832062 47.83208074 15.66188635 50.40234375 20.671875 C50.75583893 21.38837723 51.10933411 22.10487946 51.47354126 22.84309387 C52.61578959 25.15180169 53.77657934 27.45063429 54.9375 29.75 C55.72214159 31.32989388 56.50526093 32.91054467 57.28686523 34.49194336 C58.82077252 37.59297448 60.36036211 40.69105807 61.90527344 43.78662109 C64.51254232 49.01920174 67.05561384 54.2811417 69.5625 59.5625 C70.10668579 60.69220215 70.10668579 60.69220215 70.66186523 61.84472656 C73 66.76301459 73 66.76301459 73 69 C74.258125 68.67 75.51625 68.34 76.8125 68 C82.12637824 66.94789785 87.3499365 66.70791048 92.75 66.625 C93.56573486 66.59921875 94.38146973 66.5734375 95.22192383 66.546875 C100.63151933 66.52917308 103.73279023 67.37418066 108 71 C110.33909307 74.5086396 110.41291057 75.87089433 110 80 C108.72311154 82.80915461 107.68900183 84.50106764 105.1875 86.3125 C102.23367076 87.24084633 100.084218 87.37765935 97 87 C94.30009338 85.20006226 92.4581135 83.916227 91 81 C90.83203125 79.125 90.83203125 79.125 90.8125 77 C90.79832031 76.29875 90.78414063 75.5975 90.76953125 74.875 C91 73 91 73 93 71 C91.50011039 70.9723381 90.00006131 70.9533139 88.5 70.9375 C87.6646875 70.92589844 86.829375 70.91429687 85.96875 70.90234375 C82.26191676 71.02427905 78.67509943 71.50134869 75 72 C75.72783203 73.45566406 76.4556819 74.91131921 77.18359375 76.36694336 C77.87005043 77.74002366 78.55623573 79.11323966 79.2421875 80.48657227 C81.53663246 85.0788882 83.83786684 89.66771465 86.14453125 94.25390625 C92.26080285 106.42903652 98.29553495 118.62596404 104 131 C106.63521536 124.5354149 109.11353101 118.03863795 111.41796875 111.44921875 C111.72068192 110.5873848 112.02339508 109.72555084 112.33528137 108.83760071 C112.96740383 107.03560162 113.59839092 105.23320388 114.22827148 103.43041992 C115.1917083 100.67546635 116.16110425 97.9226568 117.13085938 95.16992188 C117.74775655 93.40898049 118.36430545 91.64791705 118.98046875 89.88671875 C119.26899216 89.06894455 119.55751556 88.25117035 119.8547821 87.40861511 C120.12208633 86.64043961 120.38939056 85.8722641 120.66479492 85.08081055 C120.89921799 84.41147995 121.13364105 83.74214935 121.37516785 83.05253601 C122.79099938 78.40161466 123.3614234 75.84764847 121.12915039 71.38769531 C120.47705345 70.05910492 120.47705345 70.05910492 119.81178284 68.70367432 C119.32862106 67.75474304 118.84545929 66.80581177 118.34765625 65.828125 C117.60823036 64.33439362 117.60823036 64.33439362 116.85386658 62.81048584 C115.2697055 59.61701159 113.66674102 56.43342706 112.0625 53.25 C110.499325 50.11687567 108.94006281 46.98182679 107.38119507 43.84655762 C106.36193488 41.79882858 105.34015917 39.75234964 104.31582642 37.70715332 C100.93680562 30.94842377 97.66282932 24.14997493 94.58204651 17.24957275 C92.21123001 12.05844556 89.78210512 8.18807008 85 5 C82.26127045 4.54227937 82.26127045 4.54227937 79.3125 4.375 C77.82169922 4.26285156 77.82169922 4.26285156 76.30078125 4.1484375 C75.16189453 4.07496094 75.16189453 4.07496094 74 4 C74 2.68 74 1.36 74 0 C105.35 0 136.7 0 169 0 C169 0.99 169 1.98 169 3 C167.89591797 3.16435547 167.89591797 3.16435547 166.76953125 3.33203125 C159.31509653 4.3191135 159.31509653 4.3191135 153 8 C149.73468389 13.92965379 147.54351327 19.93653353 145.5 26.375 C144.93020075 28.15464697 144.35728793 29.93330008 143.78125 31.7109375 C143.50023437 32.58459961 143.21921875 33.45826172 142.9296875 34.35839844 C141.69262314 37.87337648 140.15710547 41.23642088 138.55664062 44.60009766 C137.40959016 49.54549505 140.44812578 54.13637337 142.65234375 58.46484375 C143.17570313 59.49988037 143.6990625 60.53491699 144.23828125 61.60131836 C144.79902344 62.7022583 145.35976562 63.80319824 145.9375 64.9375 C147.12527242 67.29087266 148.31144277 69.64505451 149.49609375 72 C149.79425995 72.59260117 150.09242615 73.18520233 150.39962769 73.79576111 C154.56885194 82.10036504 158.53161486 90.50296203 162.51855469 98.89599609 C164.18131132 102.37989322 165.85847071 105.85671641 167.5390625 109.33203125 C167.98732391 110.2596653 167.98732391 110.2596653 168.44464111 111.20603943 C169.91106158 114.24042127 171.37910035 117.27399205 172.84960938 120.30639648 C173.37619141 121.39637939 173.90277344 122.4863623 174.4453125 123.609375 C174.91469238 124.57842773 175.38407227 125.54748047 175.86767578 126.54589844 C177 129 177 129 178 132 C178.19077118 131.44830139 178.38154236 130.89660278 178.57809448 130.32818604 C182.95059706 117.68513688 187.3329584 105.04556569 191.72994995 92.41101074 C193.66910763 86.83701498 195.60116731 81.26076866 197.51681519 75.6786499 C198.62746392 72.44937802 199.75215576 69.22505087 200.875 66 C201.26026855 64.8646582 201.64553711 63.72931641 202.04248047 62.55957031 C202.39713379 61.54991211 202.75178711 60.54025391 203.1171875 59.5 C203.41222168 58.6440625 203.70725586 57.788125 204.01123047 56.90625 C205 55 205 55 208 54 C209 55 209 55 209.12304783 57.18454075 C209.12212604 58.15703235 209.12120424 59.12952394 209.12025452 60.13148499 C209.12231651 61.79954948 209.12231651 61.79954948 209.12442017 63.50131226 C209.12082489 64.73201447 209.11722961 65.96271667 209.11352539 67.23071289 C209.11367142 68.51833023 209.11381744 69.80594757 209.1139679 71.13258362 C209.11425586 74.6737476 209.10835936 78.21487799 209.10139394 81.75603414 C209.09516017 85.45294988 209.09455658 89.14986631 209.09336853 92.8467865 C209.09025528 99.85203899 209.08204199 106.85727595 209.07201904 113.86252159 C209.0608577 121.83578876 209.0553474 129.80905665 209.05032361 137.78232968 C209.03985937 154.18822889 209.02226005 170.59411247 209 187 C208.67 187 208.34 187 208 187 C207.67 145.42 207.34 103.84 207 61 C206.01 64.3 205.02 67.6 204 71 C203.0190483 73.43655744 202.03753725 75.8729611 201.03515625 78.30078125 C199.4981206 82.30867422 198.31494088 86.40895483 197.125 90.53125 C196.25604908 93.21051532 195.31100996 95.73751821 194.24121094 98.33544922 C191.62002611 104.84936417 189.32234085 111.47137404 187.015625 118.1015625 C186.55071307 119.43255353 186.08560125 120.76347475 185.62030029 122.09432983 C184.40839461 125.56231819 183.19916922 129.03123501 181.99053955 132.50036621 C180.75185161 136.05420509 179.51057592 139.60713984 178.26953125 143.16015625 C175.84385046 150.10589889 173.42100644 157.05262651 171 164 C169.35 164 167.7 164 166 164 C160.35272745 153.75723919 155.22331848 143.31195047 150.2109375 132.74609375 C146.74253129 125.43933282 143.21910851 118.15957502 139.68945312 110.88226318 C138.64905834 108.73710516 137.60966571 106.5914636 136.5703125 104.44580078 C133.09327492 97.27378496 129.59130132 90.11570377 126 83 C122.99168514 90.232757 120.41970312 97.55185133 118 105 C114.32033989 116.32645376 114.32033989 116.32645376 112.171875 121.5546875 C108.87300936 129.62109183 106.11999793 137.89903105 103.25 146.125 C102.64212973 147.86205009 102.03405846 149.59902987 101.42578125 151.3359375 C99.9482017 155.55648426 98.47334759 159.77797414 97 164 C95.35 164 93.7 164 92 164 C86.57532247 154.0212722 81.45952814 143.93318463 76.59619141 133.66918945 C73.72089004 127.60092588 70.81866008 121.5469611 67.8828125 115.5078125 C67.52633133 114.77435608 67.16985016 114.04089966 66.80256653 113.28521729 C65.37333124 110.34571786 63.94349279 107.40651686 62.51119995 104.46850586 C52 82.90432045 52 82.90432045 52 80 C51.401875 80.350625 50.80375 80.70125 50.1875 81.0625 C48 82 48 82 45 81 C46.375 79.5 46.375 79.5 48 78 C48.66 78 49.32 78 50 78 C49.74658844 77.48286942 49.49317688 76.96573883 49.23208618 76.43293762 C46.53663164 70.93180339 43.84283641 65.42985872 41.14990234 59.92749023 C40.15160919 57.88822954 39.15292636 55.84915955 38.15380859 53.81030273 C36.69780443 50.83891055 35.24319681 47.8668389 33.7890625 44.89453125 C33.30697327 43.91042267 32.82488403 42.92631409 32.32818604 41.91238403 C29.90818381 36.95932712 27.51819843 31.99494203 25.18261719 27.00146484 C24.73429535 26.04576096 24.28597351 25.09005707 23.82406616 24.10539246 C22.98197939 22.30473277 22.14552183 20.50142535 21.31582642 18.69502258 C18.66098255 13.0209078 16.42298313 8.28006656 10.6875 5.25 C7.08644597 4.02930372 3.77519878 3.38522437 0 3 C0 2.01 0 1.02 0 0 Z " fill="#040404" transform="translate(51,111)"/>
<path d="M0 0 C10.99361295 8.51215449 19.15541137 20.54015692 21.765625 34.38671875 C23.4557295 50.073745 21.44627578 65.82307475 11.73046875 78.7109375 C2.65019032 89.56010134 -6.95929132 97.42253331 -20.95703125 100.9609375 C-31.96715973 101.65942952 -40.82445857 99.10382897 -49.06762695 91.87719727 C-52.79404506 88.09781288 -55.63031694 83.66481727 -58.58203125 79.2734375 C-59.27643311 78.25757568 -59.97083496 77.24171387 -60.6862793 76.19506836 C-62.1057438 74.11661896 -63.52105178 72.03532463 -64.93212891 69.95117188 C-67.32722493 66.41426132 -69.74288052 62.89179445 -72.16064453 59.37036133 C-73.74513602 57.05902344 -75.32208601 54.74267558 -76.8984375 52.42578125 C-78.96278698 49.39837736 -81.05561424 46.39367737 -83.171875 43.40234375 C-83.68322998 42.6745874 -84.19458496 41.94683105 -84.72143555 41.19702148 C-85.68088611 39.83360833 -86.64676481 38.47468583 -87.62036133 37.12133789 C-92.11120475 30.71446928 -92.11120475 30.71446928 -91.95703125 26.9609375 C-90.4199425 24.4925538 -88.94570597 22.46807046 -87.08203125 20.2734375 C-86.57679932 19.65911865 -86.07156738 19.0447998 -85.55102539 18.41186523 C-84.03503869 16.58137036 -82.49760631 14.77074421 -80.95703125 12.9609375 C-79.77560547 11.53007812 -79.77560547 11.53007812 -78.5703125 10.0703125 C-57.99002383 -14.02007927 -25.99692477 -17.92654522 0 0 Z " fill="#F9ECE4" transform="translate(442.95703125,208.0390625)"/>
<path d="M0 0 C50.57205882 0 50.57205882 0 62.8125 11.1875 C71.28937302 20.3641149 73.52692807 31.80541707 73.24609375 43.92578125 C72.75928282 54.30381535 69.67984564 64.33236908 62.18359375 71.8125 C44.71705702 85.92687311 20.85924685 82 0 82 C0 54.94 0 27.88 0 0 Z " fill="#F8EBE3" transform="translate(286,136)"/>
<path d="M0 0 C20.79 0 41.58 0 63 0 C63 0.99 63 1.98 63 3 C62.18015625 3.04898438 61.3603125 3.09796875 60.515625 3.1484375 C59.43796875 3.22320312 58.3603125 3.29796875 57.25 3.375 C55.64898437 3.47941406 55.64898437 3.47941406 54.015625 3.5859375 C51.19793568 3.9728223 49.4169634 4.55686166 47 6 C46.59672104 11.72832062 47.83208074 15.66188635 50.40234375 20.671875 C50.75583893 21.38837723 51.10933411 22.10487946 51.47354126 22.84309387 C52.61578959 25.15180169 53.77657934 27.45063429 54.9375 29.75 C55.72214159 31.32989388 56.50526093 32.91054467 57.28686523 34.49194336 C58.82077252 37.59297448 60.36036211 40.69105807 61.90527344 43.78662109 C64.51254232 49.01920174 67.05561384 54.2811417 69.5625 59.5625 C70.10668579 60.69220215 70.10668579 60.69220215 70.66186523 61.84472656 C73 66.76301459 73 66.76301459 73 69 C74.258125 68.67 75.51625 68.34 76.8125 68 C82.12637824 66.94789785 87.3499365 66.70791048 92.75 66.625 C93.56573486 66.59921875 94.38146973 66.5734375 95.22192383 66.546875 C100.63151933 66.52917308 103.73279023 67.37418066 108 71 C110.33909307 74.5086396 110.41291057 75.87089433 110 80 C108.72311154 82.80915461 107.68900183 84.50106764 105.1875 86.3125 C102.23367076 87.24084633 100.084218 87.37765935 97 87 C94.30009338 85.20006226 92.4581135 83.916227 91 81 C90.83203125 79.125 90.83203125 79.125 90.8125 77 C90.79832031 76.29875 90.78414063 75.5975 90.76953125 74.875 C91 73 91 73 93 71 C91.50011039 70.9723381 90.00006131 70.9533139 88.5 70.9375 C87.6646875 70.92589844 86.829375 70.91429687 85.96875 70.90234375 C82.26191676 71.02427905 78.67509943 71.50134869 75 72 C75.72783203 73.45566406 76.4556819 74.91131921 77.18359375 76.36694336 C77.87005043 77.74002366 78.55623573 79.11323966 79.2421875 80.48657227 C81.53663246 85.0788882 83.83786684 89.66771465 86.14453125 94.25390625 C92.26080285 106.42903652 98.29553495 118.62596404 104 131 C105.32 130.01 106.64 129.02 108 128 C107.4228363 132.9459339 106.36321145 137.33262561 104.71484375 142.02734375 C104.49429825 142.66112442 104.27375275 143.29490509 104.04652405 143.94789124 C103.3494882 145.9465772 102.64367236 147.94202627 101.9375 149.9375 C101.45969934 151.30252901 100.98248033 152.66776176 100.50585938 154.03320312 C99.34394817 157.35784861 98.17414868 160.67965369 97 164 C95.35 164 93.7 164 92 164 C86.57532247 154.0212722 81.45952814 143.93318463 76.59619141 133.66918945 C73.72089004 127.60092588 70.81866008 121.5469611 67.8828125 115.5078125 C67.52633133 114.77435608 67.16985016 114.04089966 66.80256653 113.28521729 C65.37333124 110.34571786 63.94349279 107.40651686 62.51119995 104.46850586 C52 82.90432045 52 82.90432045 52 80 C51.401875 80.350625 50.80375 80.70125 50.1875 81.0625 C48 82 48 82 45 81 C46.375 79.5 46.375 79.5 48 78 C48.66 78 49.32 78 50 78 C49.74658844 77.48286942 49.49317688 76.96573883 49.23208618 76.43293762 C46.53663164 70.93180339 43.84283641 65.42985872 41.14990234 59.92749023 C40.15160919 57.88822954 39.15292636 55.84915955 38.15380859 53.81030273 C36.69780443 50.83891055 35.24319681 47.8668389 33.7890625 44.89453125 C33.30697327 43.91042267 32.82488403 42.92631409 32.32818604 41.91238403 C29.90818381 36.95932712 27.51819843 31.99494203 25.18261719 27.00146484 C24.73429535 26.04576096 24.28597351 25.09005707 23.82406616 24.10539246 C22.98197939 22.30473277 22.14552183 20.50142535 21.31582642 18.69502258 C18.66098255 13.0209078 16.42298313 8.28006656 10.6875 5.25 C7.08644597 4.02930372 3.77519878 3.38522437 0 3 C0 2.01 0 1.02 0 0 Z " fill="#040403" transform="translate(51,111)"/>
<path d="M0 0 C19.26104868 -1.64963026 19.26104868 -1.64963026 25.07666016 1.85302734 C27.24897067 4.52219335 28.78348125 7.10606931 30.3125 10.1875 C31.48509788 12.20997134 32.6582732 14.232108 33.83203125 16.25390625 C34.36650879 17.2402002 34.90098633 18.22649414 35.45166016 19.24267578 C37.52133025 22.92839859 39.95740128 26.25698086 42.5 29.625 C46.07665083 34.45866217 46.07665083 34.45866217 45.72998047 36.90698242 C44.94312287 39.16307947 43.95320924 40.9382373 42.6640625 42.94921875 C42.18227539 43.7064624 41.70048828 44.46370605 41.20410156 45.24389648 C40.42244629 46.45348022 40.42244629 46.45348022 39.625 47.6875 C39.08842773 48.52676025 38.55185547 49.36602051 37.99902344 50.23071289 C36.33843592 52.82422297 34.66990809 55.41248385 33 58 C32.01288033 59.53636807 31.02589456 61.07282218 30.0390625 62.609375 C24.77195905 70.79292857 19.43065812 78.92403563 14 87 C6.7829605 86.63303189 6.7829605 86.63303189 3.0625 83.625 C-0.27935945 79.37172434 -0.13941693 75.67409379 -0.11352539 70.49926758 C-0.11367142 69.73805099 -0.11381744 68.97683441 -0.1139679 68.19255066 C-0.11327124 65.6765152 -0.10549038 63.16055378 -0.09765625 60.64453125 C-0.09579119 58.90004008 -0.0943677 57.1555484 -0.09336853 55.41105652 C-0.08955026 50.81941278 -0.07972584 46.22780067 -0.06866455 41.63616943 C-0.05843561 36.95081002 -0.05386773 32.26544549 -0.04882812 27.58007812 C-0.03810298 18.38670485 -0.02103481 9.19335506 0 0 Z " fill="#F8EBE3" transform="translate(286,221)"/>
<path d="M0 0 C0.99 0.495 0.99 0.495 2 1 C0.51371499 5.00087186 -1.53762103 6.12193827 -5.25 8.0625 C-31.62118972 22.90616368 -49.49393286 47.85320748 -58.17578125 76.609375 C-60.61107491 86.62754987 -61.4049692 96.18696301 -61.375 106.5 C-61.37445618 107.20487549 -61.37391235 107.90975098 -61.37335205 108.63598633 C-61.33264408 120.13452149 -60.47230121 130.98207067 -57 142 C-56.78037598 142.69963867 -56.56075195 143.39927734 -56.33447266 144.12011719 C-46.38607449 174.71865818 -25.35543988 198.4297629 3 213 C27.3848005 224.98433881 58.7353258 228.83222021 85 221 C86.23105469 220.64808594 87.46210938 220.29617188 88.73046875 219.93359375 C112.39315338 212.81667916 131.5252334 197.68083856 149.5234375 181.25390625 C151.20252205 179.7257804 152.89580823 178.21314142 154.6015625 176.71484375 C159.13703347 172.72061478 163.35337807 168.68679334 167.24609375 164.0625 C169.14276719 161.83211342 171.13034741 159.70557502 173.125 157.5625 C181.98992331 147.74289264 189.84173358 136.90793876 197.31640625 126.00390625 C199.07826882 123.90684013 200.47948224 123.00931017 203 122 C202.39212936 125.04228776 201.44318837 127.11978858 199.6640625 129.65234375 C199.18235596 130.33989746 198.70064941 131.02745117 198.2043457 131.73583984 C197.68316162 132.4623877 197.16197754 133.18893555 196.625 133.9375 C195.81905396 135.06986084 195.81905396 135.06986084 194.99682617 136.22509766 C190.78102422 142.074917 186.29313889 147.61259336 181.5546875 153.04296875 C179.25883647 155.70039876 177.09662291 158.41928599 174.9375 161.1875 C165.01570582 173.36180962 153.40769039 184.40027349 141 194 C139.81632483 194.96938623 138.63553355 195.94230031 137.45703125 196.91796875 C113.94500207 216.29381868 87.73738817 228.47408848 56.9375 228.3125 C56.20322784 228.31034485 55.46895569 228.3081897 54.71243286 228.30596924 C19.40348174 228.13934716 -9.47607207 214.48724401 -34.3984375 189.60546875 C-47.26680655 175.99208886 -55.57976852 159.83431002 -61 142 C-61.31976807 141.08911621 -61.63953613 140.17823242 -61.96899414 139.23974609 C-65.36331069 128.57373126 -65.40944963 117.34048467 -65.375 106.25 C-65.37345917 105.49788239 -65.37191833 104.74576477 -65.37033081 103.97085571 C-65.31620256 92.87544976 -64.99719743 82.48335609 -61 72 C-60.68321289 71.16194824 -60.36642578 70.32389648 -60.04003906 69.46044922 C-56.01676399 59.07345392 -51.63216478 49.01413945 -45 40 C-44.47148438 39.26394531 -43.94296875 38.52789062 -43.3984375 37.76953125 C-33.26409236 24.20103598 -21.35379164 12.64234287 -6.875 3.8125 C-6.22305664 3.41329346 -5.57111328 3.01408691 -4.89941406 2.6027832 C-3.30474066 1.66636633 -1.65574234 0.82363654 0 0 Z " fill="#1A1818" transform="translate(96,190)"/>
<path d="M0 0 C2.75 1.5625 2.75 1.5625 3.75 2.5625 C4.73297764 10.75398032 1.49519241 17.99203315 -1.25 25.5625 C-1.73291715 26.92277067 -2.21469839 28.28344516 -2.6953125 29.64453125 C-3.86713299 32.95528453 -5.05428456 36.26029012 -6.25 39.5625 C-10.02330593 34.86935803 -12.41329751 29.50170594 -15.03051758 24.10961914 C-15.93270544 22.25983046 -16.85372087 20.42021995 -17.77539062 18.58007812 C-18.34837891 17.40251953 -18.92136719 16.22496094 -19.51171875 15.01171875 C-20.30002075 13.40816528 -20.30002075 13.40816528 -21.10424805 11.7722168 C-22.40293864 8.13405672 -22.61070759 5.39811137 -22.25 1.5625 C-16.70189954 -3.49060265 -6.61329803 -2.78526867 0 0 Z " fill="#F6E9E1" transform="translate(193.25,115.4375)"/>
<path d="M0 0 C11.13419648 9.23573902 18.28188617 22.05543971 21.41796875 36.109375 C22.98597886 55.64773131 18.90800782 72.31286324 6.0078125 87.484375 C1.5837239 91.9685191 -3.39176795 95.55259558 -8.58203125 99.109375 C-9.57203125 98.119375 -9.57203125 98.119375 -10.58203125 97.109375 C-7.71629498 94.15408447 -4.78140604 91.4016217 -1.64453125 88.734375 C7.94231162 80.33464588 15.92854658 68.67222221 17.25390625 55.6640625 C18.38312415 38.08052659 15.7171978 23.64998279 4.79296875 9.359375 C-4.9195213 -0.99717937 -19.18226536 -8.22980654 -33.33203125 -9.12890625 C-47.78282073 -9.50663794 -58.85232322 -5.77154826 -71.58203125 1.109375 C-70.9921875 -1.6875 -70.9921875 -1.6875 -69.58203125 -4.890625 C-65.22842643 -7.5964511 -60.40424865 -9.19362609 -55.58203125 -10.890625 C-54.82535156 -11.16132813 -54.06867188 -11.43203125 -53.2890625 -11.7109375 C-34.78156348 -16.95657594 -15.09129995 -11.05021056 0 0 Z " fill="#161514" transform="translate(446.58203125,206.890625)"/>
<path d="M0 0 C-0.65226562 0.7734375 -1.30453125 1.546875 -1.9765625 2.34375 C-6.82139224 8.11008008 -11.58251891 13.89453833 -16 20 C-16.70125 19.773125 -17.4025 19.54625 -18.125 19.3125 C-21.08699542 18.72083111 -21.08699542 18.72083111 -23.75 20.4375 C-28.84675742 22.88786415 -33.13928161 22.91809102 -38.51953125 21.19140625 C-45.18728512 18.23137419 -49.686433 13.8317498 -54 8 C-54 7.67 -54 7.34 -54 7 C-53.29093506 6.98541748 -52.58187012 6.97083496 -51.85131836 6.95581055 C-35.19460253 6.57365809 -19.67945095 6.10990802 -4.07421875 -0.328125 C-2 -1 -2 -1 0 0 Z " fill="#F2E5DE" transform="translate(365,214)"/>
<path d="M0 0 C0.495 1.485 0.495 1.485 1 3 C0.09472656 4.78662109 0.09472656 4.78662109 -1.359375 6.7734375 C-1.89272461 7.50941162 -2.42607422 8.24538574 -2.97558594 9.00366211 C-3.56114258 9.78620361 -4.14669922 10.56874512 -4.75 11.375 C-5.34329102 12.18138916 -5.93658203 12.98777832 -6.54785156 13.81860352 C-10.97073002 19.77034175 -15.61014767 25.48953499 -20.48046875 31.078125 C-22.76249649 33.72456957 -24.91340716 36.43332277 -27.0625 39.1875 C-36.98429418 51.36180962 -48.59230961 62.40027349 -61 72 C-62.18367517 72.96938623 -63.36446645 73.94230031 -64.54296875 74.91796875 C-72.33336114 81.33382174 -80.19314923 87.04376364 -89 92 C-89.71800781 92.42023438 -90.43601563 92.84046875 -91.17578125 93.2734375 C-93 94 -93 94 -96 93 C-93.94580187 89.91870281 -93.07933473 89.30524071 -89.91796875 87.69140625 C-85.10302673 85.11413758 -80.72003104 82.15383278 -76.3125 78.9375 C-75.53430908 78.37168213 -74.75611816 77.80586426 -73.9543457 77.22290039 C-66.64040522 71.84136815 -59.74741486 66.07030447 -53 60 C-52.4234668 59.48518066 -51.84693359 58.97036133 -51.25292969 58.43994141 C-45.4177174 53.21478875 -39.67899701 47.98143301 -34.6484375 41.95703125 C-32.79386097 39.75527096 -30.83665751 37.66933433 -28.875 35.5625 C-19.99461163 25.72576212 -12.17419316 14.85610594 -4.5859375 4.00390625 C-3 2 -3 2 0 0 Z " fill="#131211" transform="translate(298,312)"/>
<path d="M0 0 C0.66 0.33 1.32 0.66 2 1 C2 44.56 2 88.12 2 133 C1.67 133 1.34 133 1 133 C0.505 70.63 0.505 70.63 0 7 C-0.99 10.3 -1.98 13.6 -3 17 C-3.9809517 19.43655744 -4.96246275 21.8729611 -5.96484375 24.30078125 C-7.5018794 28.30867422 -8.68505912 32.40895483 -9.875 36.53125 C-10.767583 39.28338091 -11.7477644 41.89089947 -12.84375 44.5625 C-14.45814375 48.52972315 -15.87766751 52.52595608 -17.21875 56.59375 C-17.59386719 57.72554687 -17.96898437 58.85734375 -18.35546875 60.0234375 C-19.12777756 62.36935846 -19.89058903 64.7184245 -20.64453125 67.0703125 C-21.01964844 68.19179687 -21.39476562 69.31328125 -21.78125 70.46875 C-22.11189453 71.48388672 -22.44253906 72.49902344 -22.78320312 73.54492188 C-24.20129068 76.40613544 -25.1685117 76.75411641 -28 78 C-26.63276354 71.20106266 -24.68469956 64.84203481 -22.33203125 58.32421875 C-21.79517952 56.81635551 -21.79517952 56.81635551 -21.2474823 55.2780304 C-20.10748311 52.07937747 -18.96023118 48.88338566 -17.8125 45.6875 C-16.68825815 42.54141851 -15.56552076 39.39480355 -14.44308472 36.24807739 C-13.70557259 34.18277199 -12.96643031 32.11804795 -12.22561646 30.05392456 C-10.4348511 25.05858968 -8.66885263 20.05718228 -6.95849609 15.03369141 C-6.63966965 14.10216751 -6.3208432 13.17064362 -5.99235535 12.21089172 C-5.39402721 10.45699508 -4.80169176 8.70103908 -4.21626282 6.9427948 C-2.22205004 1.11102502 -2.22205004 1.11102502 0 0 Z " fill="#494543" transform="translate(258,165)"/>
<path d="M0 0 C12.21 0 24.42 0 37 0 C37 0.99 37 1.98 37 3 C36.27554688 3.09796875 35.55109375 3.1959375 34.8046875 3.296875 C26.7016747 4.52376468 26.7016747 4.52376468 20 9 C17.61424391 13.17892115 16.16503942 17.33984232 15 22 C33.48 22 51.96 22 71 22 C71 22.33 71 22.66 71 23 C63.6026924 23.04629419 56.20541593 23.08185426 48.80799294 23.10362434 C45.37324541 23.1140717 41.93859683 23.12824805 38.50390625 23.15087891 C34.55730362 23.17672063 30.61074137 23.18646493 26.6640625 23.1953125 C25.42757965 23.20563507 24.1910968 23.21595764 22.91714478 23.22659302 C21.77611298 23.22674408 20.63508118 23.22689514 19.45947266 23.22705078 C18.451315 23.231492 17.44315735 23.23593323 16.40444946 23.24050903 C14 23 14 23 12 21 C12.28674418 18.99279077 12.63079809 16.99369031 13 15 C13.09137683 12.32602531 13.04615007 9.67670434 13 7 C8.63799813 4.55302334 4.97306516 3.49730652 0 3 C0 2.01 0 1.02 0 0 Z " fill="#2A2827" transform="translate(257,111)"/>
<path d="M0 0 C0.66 0.33 1.32 0.66 2 1 C0.51371499 5.00087186 -1.53762103 6.12193827 -5.25 8.0625 C-27.9462831 20.83765336 -43.30463142 40.37536858 -53.66015625 64.0234375 C-55 67 -55 67 -57 70 C-57.66 70 -58.32 70 -59 70 C-58.43597811 64.80294115 -56.73889137 60.88525544 -54.375 56.3125 C-54.0130957 55.60625488 -53.65119141 54.90000977 -53.27832031 54.17236328 C-47.20530428 42.48140824 -39.77431006 32.75636524 -31 23 C-30.39414063 22.3090625 -29.78828125 21.618125 -29.1640625 20.90625 C-21.55045996 12.71293153 -10.12884044 4.62494574 0 0 Z " fill="#141312" transform="translate(96,190)"/>
<path d="M0 0 C0.33 0.99 0.66 1.98 1 3 C-0.33449518 5.30475887 -1.70844976 7.40191529 -3.25 9.5625 C-7.80609538 16.14797287 -12.04423778 22.87297553 -16.15527344 29.74438477 C-23.93077997 42.65738371 -23.93077997 42.65738371 -27.15161133 43.68945312 C-27.76157959 43.79193359 -28.37154785 43.89441406 -29 44 C-27.74517201 40.64057171 -26.32117809 37.72565997 -24.34765625 34.734375 C-23.56140869 33.53433838 -23.56140869 33.53433838 -22.75927734 32.31005859 C-22.19934082 31.46523926 -21.6394043 30.62041992 -21.0625 29.75 C-19.8888971 27.96642595 -18.71572798 26.1825664 -17.54296875 24.3984375 C-16.65617432 23.05217285 -16.65617432 23.05217285 -15.75146484 21.67871094 C-14.08087609 19.12369284 -12.43548176 16.55465445 -10.80078125 13.9765625 C-10.30634521 13.19958008 -9.81190918 12.42259766 -9.30249023 11.62207031 C-8.36916427 10.15288403 -7.44010316 8.68097745 -6.51586914 7.20605469 C-4.5314822 4.09767629 -3.10810564 2.07207043 0 0 Z " fill="#121111" transform="translate(332,260)"/>
<path d="M0 0 C2.36600997 7.04974399 -2.34852547 14.99642539 -5.03125 21.5 C-5.99095431 23.97665628 -6.76632402 26.44808355 -7.5 29 C-9.31592308 35.28130769 -11.35833587 41.5375038 -15 47 C-15.66 46.67 -16.32 46.34 -17 46 C-14.77937855 37.04655218 -11.82671085 28.38739822 -8.7565918 19.69873047 C-7.92781348 17.34751972 -7.11121145 14.99229027 -6.29492188 12.63671875 C-5.76895961 11.14036805 -5.24229343 9.64426454 -4.71484375 8.1484375 C-4.47209213 7.44439789 -4.22934052 6.74035828 -3.97923279 6.01498413 C-2.22895316 1.11447658 -2.22895316 1.11447658 0 0 Z " fill="#232120" transform="translate(174,194)"/>
<path d="M0 0 C6 0 6 0 8.375 1.625 C10.48706506 4.71186432 10.61195145 6.3282913 10 10 C8.375 12.375 8.375 12.375 6 14 C4.02 14 2.04 14 0 14 C0 9.38 0 4.76 0 0 Z " fill="#9E9690" transform="translate(166,332)"/>
<path d="M0 0 C6 0 6 0 8.375 1.625 C10.48706506 4.71186432 10.61195145 6.3282913 10 10 C8.375 12.375 8.375 12.375 6 14 C4.02 14 2.04 14 0 14 C0 9.38 0 4.76 0 0 Z " fill="#9E9690" transform="translate(138,332)"/>
<path d="M0 0 C2.31 0 4.62 0 7 0 C7.66 0.66 8.32 1.32 9 2 C8.63723355 4.82957829 7.90305236 7.29084291 7 10 C7.87483915 12.16715557 7.87483915 12.16715557 9 14 C6.11562221 12.70700306 4.12780579 11.34058637 2 9 C2 10.65 2 12.3 2 14 C1.34 14 0.68 14 0 14 C0 9.38 0 4.76 0 0 Z " fill="#3E3B38" transform="translate(311,332)"/>
<path d="M0 0 C0.33 0.66 0.66 1.32 1 2 C1.66 2 2.32 2 3 2 C2.06428479 6.01317858 0.83822944 9.93922593 -0.375 13.875 C-0.68824219 14.91720703 -0.68824219 14.91720703 -1.0078125 15.98046875 C-2.3121288 20.20359043 -3.72272515 24.18118525 -6 28 C-6.99 28.33 -7.98 28.66 -9 29 C-7.6393319 22.24476394 -5.71290027 15.91424405 -3.375 9.4375 C-3.05015625 8.52419922 -2.7253125 7.61089844 -2.390625 6.66992188 C-1.59846371 4.44488059 -0.8015341 2.22167825 0 0 Z " fill="#272524" transform="translate(196,126)"/>
<path d="M0 0 C2.31 0 4.62 0 7 0 C9 2 9 2 9.1875 4.5625 C9 7 9 7 8 8 C6.00041636 8.04080783 3.99954746 8.04254356 2 8 C2 9.98 2 11.96 2 14 C1.34 14 0.68 14 0 14 C0 9.38 0 4.76 0 0 Z " fill="#433F3D" transform="translate(391,332)"/>
<path d="M0 0 C0.99 0.495 0.99 0.495 2 1 C2.625 3.5625 2.625 3.5625 3 6 C4.95216435 4.04783565 5.84826645 2.46800047 7 0 C9.22189824 2.22189824 9.92598892 4.08482708 11 7 C11.66 4.69 12.32 2.38 13 0 C13.66 0 14.32 0 15 0 C14.48594831 4.96916636 13.76615118 9.29026351 12 14 C9.3534665 11.3534665 8.40058003 8.43778736 7 5 C5.68 7.97 4.36 10.94 3 14 C0.81005752 10.71508627 0.64722661 9.16904361 0.375 5.3125 C0.30023438 4.31863281 0.22546875 3.32476562 0.1484375 2.30078125 C0.09945312 1.54152344 0.05046875 0.78226562 0 0 Z " fill="#3B3836" transform="translate(80,332)"/>
<path d="M0 0 C2.375 1.375 2.375 1.375 4 3 C4 3.66 4 4.32 4 5 C3.34 5 2.68 5 2 5 C1.566875 4.484375 1.13375 3.96875 0.6875 3.4375 C0.130625 2.963125 -0.42625 2.48875 -1 2 C-4.31818985 2.24205349 -4.31818985 2.24205349 -7 4 C-7.16666667 7 -7.16666667 7 -7 10 C-5.81575674 11.41577477 -5.81575674 11.41577477 -2.4375 11.0625 C-0.7359375 11.0315625 -0.7359375 11.0315625 1 11 C1.33 10.34 1.66 9.68 2 9 C0.35 9 -1.3 9 -3 9 C-3 8.34 -3 7.68 -3 7 C-0.36 7 2.28 7 5 7 C3.75023244 10.65316671 3.32901247 11.78065836 0 14 C-2.9375 14.4375 -2.9375 14.4375 -6 14 C-8.62846098 11.57904909 -9.81388233 9.95385308 -10.5 6.4375 C-9.30437154 0.60881127 -5.52886037 -0.80629214 0 0 Z " fill="#423E3C" transform="translate(249,332)"/>
<path d="M0 0 C0 6.89258909 -8.96743756 13.0844981 -13.625 17.8125 C-14.17502686 18.37565918 -14.72505371 18.93881836 -15.29174805 19.51904297 C-18.31845444 22.55167068 -21.17487607 24.9736797 -25 27 C-23.41568547 23.09148801 -20.73364905 20.47632644 -17.7734375 17.578125 C-17.26575836 17.07327576 -16.75807922 16.56842651 -16.23501587 16.04827881 C-14.61966158 14.44407904 -12.99747791 12.84699144 -11.375 11.25 C-10.27558302 10.16061893 -9.17661941 9.0707801 -8.078125 7.98046875 C-5.3906398 5.31498115 -2.69700979 2.65584857 0 0 Z " fill="#0D0C0C" transform="translate(268,351)"/>
<path d="M0 0 C1.59063779 4.86298304 -0.1017377 8.44533782 -1.6875 13.125 C-2.07325195 14.36056641 -2.07325195 14.36056641 -2.46679688 15.62109375 C-2.72912109 16.40871094 -2.99144531 17.19632813 -3.26171875 18.0078125 C-3.49850342 18.72598145 -3.73528809 19.44415039 -3.97924805 20.18408203 C-5.2720079 22.48390212 -6.58885202 23.04325947 -9 24 C-7.49958009 16.08869501 -5.17413107 8.40630583 -2 1 C-1.34 0.67 -0.68 0.34 0 0 Z " fill="#151413" transform="translate(239,219)"/>
<path d="M0 0 C0.66 0.66 1.32 1.32 2 2 C1.41734375 2.14695313 0.8346875 2.29390625 0.234375 2.4453125 C-6.99705549 4.42372273 -13.39156215 7.4913964 -20 11 C-19.4296875 8.21484375 -19.4296875 8.21484375 -18 5 C-15.61295858 3.51931642 -13.69794865 2.53980127 -11.125 1.5625 C-10.18720703 1.1612793 -10.18720703 1.1612793 -9.23046875 0.75195312 C-5.86458086 -0.61076893 -3.39739644 -1.58808531 0 0 Z " fill="#1B1A19" transform="translate(395,197)"/>
<path d="M0 0 C0.66 0.33 1.32 0.66 2 1 C0 7 -2 13 -4 19 C-4.99 18.67 -5.98 18.34 -7 18 C-3.42857143 4.61904762 -3.42857143 4.61904762 -2 1 C-1.34 0.67 -0.68 0.34 0 0 Z " fill="#211F1E" transform="translate(164,222)"/>
<path d="M0 0 C0.33 0.99 0.66 1.98 1 3 C-0.73046875 5.6640625 -0.73046875 5.6640625 -3.1875 8.625 C-3.98542969 9.60726562 -4.78335937 10.58953125 -5.60546875 11.6015625 C-7.89258037 13.89240513 -8.84937698 14.69580192 -12 15 C-10.53162104 11.80024884 -8.72160654 9.15165744 -6.5625 6.375 C-5.96566406 5.59898437 -5.36882812 4.82296875 -4.75390625 4.0234375 C-3 2 -3 2 0 0 Z " fill="#151413" transform="translate(363,217)"/>
<path d="M0 0 C1.3809273 3.72673328 0.59902051 6.02657117 -0.75 9.6875 C-1.09546875 10.66074219 -1.4409375 11.63398438 -1.796875 12.63671875 C-3 15 -3 15 -6 16 C-3.81395349 5.53488372 -3.81395349 5.53488372 -2 1 C-1.34 0.67 -0.68 0.34 0 0 Z " fill="#171615" transform="translate(253,179)"/>
<path d="M0 0 C1.43410153 3.78819273 0.51009497 6.06521279 -0.9375 9.75 C-1.31777344 10.73484375 -1.69804687 11.7196875 -2.08984375 12.734375 C-2.39019531 13.48203125 -2.69054687 14.2296875 -3 15 C-3.99 15 -4.98 15 -6 15 C-5.52188823 13.22888156 -5.0424722 11.45811517 -4.5625 9.6875 C-4.29566406 8.70136719 -4.02882812 7.71523437 -3.75390625 6.69921875 C-3.21920575 4.78482474 -2.62855462 2.88566385 -2 1 C-1.34 0.67 -0.68 0.34 0 0 Z " fill="#141313" transform="translate(169,208)"/>
<path d="M0 0 C1.23593891 3.70781672 0.5678132 4.67510253 -0.9375 8.1875 C-1.31777344 9.08855469 -1.69804688 9.98960937 -2.08984375 10.91796875 C-2.54037109 11.94857422 -2.54037109 11.94857422 -3 13 C-3.99 13 -4.98 13 -6 13 C-5.49890261 7.73847744 -3.79035827 3.79035827 0 0 Z " fill="#0F0F0E" transform="translate(43,247)"/>
<path d="M0 0 C1.32 0.33 2.64 0.66 4 1 C3.01 4.3 2.02 7.6 1 11 C0.01 10.34 -0.98 9.68 -2 9 C-1.34 6.03 -0.68 3.06 0 0 Z " fill="#2D2B29" transform="translate(246,194)"/>
<path d="M0 0 C1 3 1 3 -0.1875 6.125 C-2 9 -2 9 -4.1875 9.875 C-5.0846875 9.936875 -5.0846875 9.936875 -6 10 C-4.79157144 5.56909529 -3.48331435 3.01887244 0 0 Z " fill="#1B1918" transform="translate(47,239)"/>
<path d="M0 0 C1.32 0.33 2.64 0.66 4 1 C2.6875 4.4375 2.6875 4.4375 1 8 C0.01 8.33 -0.98 8.66 -2 9 C-1.34 6.03 -0.68 3.06 0 0 Z " fill="#1F1E1D" transform="translate(232,234)"/>
<path d="M0 0 C1.46726798 3.81489674 0.43336419 6.29011622 -1 10 C-1.99 10 -2.98 10 -4 10 C-3.71872579 8.51882199 -3.42466268 7.04006751 -3.125 5.5625 C-2.96257812 4.73878906 -2.80015625 3.91507813 -2.6328125 3.06640625 C-2.42398438 2.38449219 -2.21515625 1.70257813 -2 1 C-1.34 0.67 -0.68 0.34 0 0 Z " fill="#141313" transform="translate(245,202)"/>
<path d="M0 0 C0 3.63053243 -1.2278255 4.95750337 -3.5546875 7.63671875 C-5.49136818 9.46347972 -7.46012234 10.27432067 -10 11 C-6.79239749 7.19364503 -3.59253891 3.45436433 0 0 Z " fill="#100F0F" transform="translate(454,289)"/>
<path d="M0 0 C0.98726527 2.66561622 1.0275526 3.90126985 0.25 6.6875 C-1 9 -1 9 -4 10 C-3.71872579 8.51882199 -3.42466268 7.04006751 -3.125 5.5625 C-2.96257812 4.73878906 -2.80015625 3.91507813 -2.6328125 3.06640625 C-2.42398438 2.38449219 -2.21515625 1.70257813 -2 1 C-1.34 0.67 -0.68 0.34 0 0 Z " fill="#161514" transform="translate(191,145)"/>
<path d="M0 0 C1.65 0 3.3 0 5 0 C5 1.65 5 3.3 5 5 C3.35 5 1.7 5 0 5 C0 3.35 0 1.7 0 0 Z " fill="#F6E9E1" transform="translate(393,334)"/>
<path d="M0 0 C1.65 0 3.3 0 5 0 C4.67 1.65 4.34 3.3 4 5 C2.68 5 1.36 5 0 5 C0 3.35 0 1.7 0 0 Z " fill="#F9ECE4" transform="translate(313,334)"/>
<path d="M0 0 C0.33 0.99 0.66 1.98 1 3 C-1.36292656 5.52588702 -2.66462511 6.88820837 -6 8 C-4.73058503 4.08597051 -3.48832306 2.20927127 0 0 Z " fill="#0E0D0D" transform="translate(298,312)"/>
<path d="M0 0 C0.93065133 2.60582371 1.14917407 3.64198224 0.0625 6.25 C-0.4634375 7.11625 -0.4634375 7.11625 -1 8 C-1.99 8 -2.98 8 -4 8 C-3.40138258 5.64828869 -2.73075648 3.3140622 -2 1 C-1.34 0.67 -0.68 0.34 0 0 Z " fill="#191817" transform="translate(174,194)"/>
<path d="M0 0 C0.33 0.99 0.66 1.98 1 3 C-1.36292656 5.52588702 -2.66462511 6.88820837 -6 8 C-4.73058503 4.08597051 -3.48832306 2.20927127 0 0 Z " fill="#181716" transform="translate(332,260)"/>
<path d="M0 0 C1.10844919 3.32534757 0.84454356 5.62182575 0 9 C-0.99 8.34 -1.98 7.68 -3 7 C-2.625 4.0625 -2.625 4.0625 -2 1 C-1.34 0.67 -0.68 0.34 0 0 Z " fill="#201E1D" transform="translate(38,259)"/>
<path d="M0 0 C0.625 1.8125 0.625 1.8125 1 4 C0.01 5.485 0.01 5.485 -1 7 C-1.66 7 -2.32 7 -3 7 C-2.625 4.0625 -2.625 4.0625 -2 1 C-1.34 0.67 -0.68 0.34 0 0 Z " fill="#171615" transform="translate(272,125)"/>
<path d="M0 0 C0.6875 1.8125 0.6875 1.8125 1 4 C-0.4375 5.75 -0.4375 5.75 -2 7 C-3 4 -3 4 -2 1 C-1.34 0.67 -0.68 0.34 0 0 Z " fill="#0F0E0E" transform="translate(236,228)"/>
<path d="M0 0 C2.86724686 0.57344937 3.8614515 0.8614515 6 3 C3.69 3.33 1.38 3.66 -1 4 C-0.67 2.68 -0.34 1.36 0 0 Z " fill="#2B2827" transform="translate(391,196)"/>
<path d="M0 0 C0.6875 1.8125 0.6875 1.8125 1 4 C-0.4375 5.75 -0.4375 5.75 -2 7 C-3 4 -3 4 -2 1 C-1.34 0.67 -0.68 0.34 0 0 Z " fill="#111010" transform="translate(250,188)"/>
</svg>
