<svg version="1.1" id="Layer_1" xmlns="http://www.w3.org/2000/svg" xmlns:xlink="http://www.w3.org/1999/xlink" x="0px" y="0px"
	 width="100%" viewBox="0 0 496 496" enable-background="new 0 0 496 496" xml:space="preserve">
<path fill="#000000" opacity="1.000000" stroke="none" 
	d="
M179.688232,417.025909 
	C156.663605,421.554016 134.152985,421.536713 112.385643,413.384155 
	C66.620705,396.243744 38.779324,363.308685 32.156761,314.972321 
	C24.908089,262.066132 51.116001,215.454788 96.400955,191.647949 
	C100.178749,189.661896 101.112877,188.183868 99.100456,184.133575 
	C89.837837,165.491150 80.818840,146.725662 71.902161,127.914413 
	C68.592453,120.932014 64.237061,115.862991 55.781593,115.967888 
	C54.369175,115.985413 52.385654,115.776604 52.429226,113.785583 
	C52.482815,111.336830 54.687130,111.759285 56.241898,111.756004 
	C74.404137,111.717720 92.566528,111.719650 110.728767,111.758881 
	C112.298409,111.762268 114.193108,111.427917 114.889526,113.994865 
	C112.299782,116.524132 108.728447,115.347954 105.705101,115.960320 
	C98.268135,117.466637 96.540588,119.730499 99.699196,126.441399 
	C107.784485,143.619705 116.187447,160.648376 124.428856,177.753510 
	C125.535957,180.051315 126.989494,180.889038 129.614120,180.180771 
	C136.421829,178.343658 143.479645,178.637085 150.436325,178.236603 
	C156.327484,177.897476 162.335190,183.926636 162.264618,189.539154 
	C162.192291,195.292892 157.210785,199.705566 151.255707,199.290985 
	C146.713043,198.974747 143.151794,195.584152 142.680923,191.024521 
	C142.404633,188.349075 142.721466,185.730698 144.537170,182.658569 
	C138.803574,182.763138 133.863083,183.252487 128.067215,185.055634 
	C137.308884,204.233429 146.416855,223.133743 155.854126,242.717422 
	C158.904922,238.256287 159.708435,233.963272 161.147766,229.988968 
	C165.625427,217.625214 169.770187,205.141159 174.205185,192.761490 
	C175.126633,190.189392 174.974121,188.089584 173.783722,185.655792 
	C164.344177,166.356445 154.961716,147.028549 145.692123,127.647064 
	C142.448425,120.864891 138.106979,115.949768 129.889786,115.958092 
	C128.348038,115.959648 126.093399,115.835304 126.323997,113.483383 
	C126.515701,111.528152 128.519897,111.779396 129.965927,111.778038 
	C158.959015,111.750778 187.952133,111.743591 216.945221,111.767670 
	C218.529541,111.768982 220.400467,111.521439 221.026855,114.130249 
	C219.668961,116.388016 217.144592,116.026360 214.986832,116.184319 
	C208.903549,116.629654 204.429474,119.486748 202.285431,125.147881 
	C198.218491,135.886246 194.476669,146.747787 190.602646,157.559174 
	C189.937210,159.416245 190.344620,161.147278 191.176697,162.860886 
	C203.834991,188.929535 216.481277,215.004028 229.142273,241.071381 
	C229.278061,241.350922 229.571884,241.553696 230.119156,242.147186 
	C233.523300,236.447388 234.912613,230.119125 237.062729,224.147781 
	C244.392929,203.790283 251.492554,183.349487 258.621155,162.919861 
	C260.598389,157.253372 260.077545,151.360764 259.277069,145.616959 
	C258.638672,141.036148 254.936371,139.180267 250.711487,138.455627 
	C249.406601,138.231796 248.052917,138.302032 246.723572,138.208832 
	C245.178696,138.100510 243.491043,137.920563 243.475449,135.916718 
	C243.458679,133.759445 245.304291,133.845657 246.764526,133.829681 
	C252.595825,133.765823 258.428558,133.825668 264.259674,133.753693 
	C269.026001,133.694855 270.893036,131.036911 271.717377,124.064423 
	C272.261017,119.466118 270.184326,117.147736 265.896790,116.422714 
	C264.257355,116.145485 262.573090,116.134079 260.933075,115.859367 
	C259.668488,115.647537 258.022247,115.576744 258.117920,113.720451 
	C258.210602,111.921661 259.769714,111.833115 261.096741,111.813507 
	C265.428162,111.749496 269.760742,111.762283 274.092896,111.753830 
	C279.258331,111.743752 284.426392,111.645287 289.587799,111.786911 
	C291.529846,111.840195 294.701935,110.756561 294.798218,113.867607 
	C294.877777,116.436928 291.843475,115.903084 290.021240,116.109680 
	C280.018097,117.243797 274.722961,122.795807 274.063629,133.080734 
	C276.037079,134.282440 278.250305,133.738495 280.355774,133.764832 
	C298.170471,133.987656 315.997986,133.180023 333.796326,134.708969 
	C344.638000,135.640305 355.276825,137.306641 365.222534,141.992584 
	C382.405792,150.088547 386.939056,164.109573 386.656342,179.315842 
	C386.509216,187.227737 384.880615,194.841202 379.758118,202.475525 
	C390.488770,196.752701 401.045044,194.458115 412.263977,194.628311 
	C442.390686,195.085297 468.365173,221.738632 469.550842,251.794388 
	C470.743500,282.027496 449.474152,306.794739 424.001831,312.630096 
	C416.168121,314.424683 408.252258,315.101105 400.244934,313.497070 
	C396.340668,312.714966 392.365692,312.475739 388.371979,312.220856 
	C375.462036,311.396973 365.932129,304.262238 358.360046,294.487000 
	C351.634430,285.804626 345.564148,276.614960 339.192261,267.658020 
	C338.055756,266.060455 336.858704,264.505981 335.356506,262.483063 
	C330.749237,268.033539 327.576813,273.860413 324.070068,279.441742 
	C305.200653,309.474487 285.903900,339.248352 260.672546,364.460327 
	C241.548615,383.569580 221.476013,401.678131 195.746155,411.823029 
	C190.651016,413.831940 185.318069,415.237732 179.688232,417.025909 
M56.203293,366.314606 
	C63.297432,376.301758 71.736481,384.942535 81.465202,392.425659 
	C119.699577,421.834869 173.599777,424.121429 213.935547,397.767487 
	C242.732697,378.952454 266.478668,354.852936 286.881104,327.323303 
	C290.314117,322.691010 293.966217,318.195801 296.763092,313.044403 
	C294.998779,311.880951 293.302246,312.388184 291.709412,312.383606 
	C277.548279,312.342743 263.386993,312.368561 249.225754,312.352448 
	C247.732956,312.350769 246.223602,312.308838 244.756866,312.070526 
	C244.254684,311.988953 243.646210,311.322449 243.463562,310.793030 
	C243.161163,309.916534 243.653351,309.114075 244.522095,308.830963 
	C245.623322,308.472137 246.779877,308.256470 247.927399,308.070496 
	C257.986053,306.440521 259.721375,304.511688 259.729279,294.459473 
	C259.755432,261.305511 259.738953,228.151581 259.738800,194.997635 
	C259.738770,188.047043 259.738800,181.096451 259.738800,174.036835 
	C258.440460,174.429413 258.510773,175.375366 258.256256,176.099762 
	C247.276169,207.349472 236.334305,238.612701 225.274673,269.834198 
	C224.366638,272.397552 224.643036,276.205719 220.312149,276.303284 
	C216.403641,276.391357 216.132263,272.982544 214.972595,270.603058 
	C203.591858,247.251221 192.296646,223.857712 180.935333,200.496353 
	C180.170670,198.924011 179.832474,196.995728 177.934418,196.008606 
	C176.205795,197.777359 175.794006,200.113480 175.038681,202.250153 
	C166.939026,225.162628 158.898499,248.096008 150.776489,271.000519 
	C149.994507,273.205811 149.918793,276.115753 146.443100,276.315491 
	C143.076706,276.508972 142.458466,273.918396 141.387527,271.700500 
	C129.440170,246.957565 117.429855,222.244705 105.596893,197.447205 
	C103.860344,193.808029 102.218094,192.870575 98.454994,194.948166 
	C90.258461,199.473465 82.324112,204.375595 75.299049,210.547729 
	C29.990419,250.355530 21.780827,315.962402 56.203293,366.314606 
M416.923126,309.355804 
	C417.911865,309.383240 418.931854,309.584259 419.884857,309.412903 
	C449.638336,304.062317 469.636108,275.686584 464.823639,245.694412 
	C458.714386,207.619995 417.400787,187.206528 383.523224,205.177673 
	C370.064758,212.317047 362.366089,224.637497 353.366180,235.900131 
	C352.085175,237.503220 352.718994,238.977005 353.740601,240.449951 
	C366.937561,259.477112 380.026855,278.579987 393.365479,297.507202 
	C397.206818,302.958008 402.536407,306.678650 409.389557,307.677032 
	C411.684082,308.011292 414.071106,307.852417 416.923126,309.355804 
M358.171539,189.553116 
	C359.150116,184.119461 359.195374,178.643234 358.896851,173.154297 
	C357.875732,154.378006 347.645050,142.477325 329.120483,139.216110 
	C316.433563,136.982605 303.562317,138.610260 290.780518,138.220291 
	C287.254303,138.112701 287.387451,140.583099 287.388245,143.001846 
	C287.396027,166.625793 287.452240,190.250031 287.333191,213.873367 
	C287.314117,217.654114 288.787628,218.734924 292.360779,218.721039 
	C303.337860,218.678391 314.308563,218.708633 325.254242,217.687149 
	C342.769928,216.052551 354.341064,206.394211 358.171539,189.553116 
M287.401337,269.499878 
	C287.397217,274.997498 287.375183,280.495178 287.394379,285.992706 
	C287.411194,290.814880 287.147491,295.640808 288.259003,300.417755 
	C289.197968,304.453308 291.651306,306.694519 295.593475,307.650696 
	C299.560394,308.612854 301.665131,306.621490 303.652313,303.494293 
	C312.405701,289.719238 321.254608,276.002533 330.270752,262.398499 
	C332.238617,259.429321 332.238281,257.254303 330.153259,254.396973 
	C325.442627,247.941498 321.048920,241.254944 316.518402,234.667786 
	C307.851501,222.066635 307.850098,222.180908 292.549591,222.301086 
	C288.639587,222.331802 287.296265,223.603348 287.344788,227.518555 
	C287.514160,241.177124 287.405426,254.839142 287.401337,269.499878 
M174.098236,127.409485 
	C178.329391,136.166397 182.560562,144.923309 187.225006,154.576920 
	C191.363129,144.143707 195.174347,134.635330 197.616150,124.702576 
	C198.915222,119.418190 196.735046,116.948288 191.197754,116.383469 
	C187.583405,116.014801 183.899475,115.980446 180.269073,116.187874 
	C172.129425,116.652939 170.822601,118.884956 174.098236,127.409485 
M355.701935,226.225067 
	C358.153625,223.010742 360.605347,219.796432 363.725189,215.706161 
	C354.939575,219.057785 347.009918,220.675339 338.916107,221.791611 
	C330.718018,222.922256 322.407715,221.633194 313.236755,222.986893 
	C318.407135,229.733398 323.583679,235.453232 331.651215,235.567749 
	C340.374329,235.691605 349.448120,235.178406 355.701935,226.225067 
z"/>
</svg>